<svg xmlns="http://www.w3.org/2000/svg" xmlns:xlink="http://www.w3.org/1999/xlink" viewBox="0 0 129.55 129.55"><defs><style>.cls-1{fill:url(#Nueva_muestra_de_degradado_4);}.cls-2{fill:url(#Nueva_muestra_de_degradado_4-2);}.cls-3{fill:url(#Nueva_muestra_de_degradado_4-3);}.cls-4{fill:url(#Nueva_muestra_de_degradado_4-4);}.cls-5{fill:url(#Nueva_muestra_de_degradado_4-5);}.cls-6{fill:url(#Nueva_muestra_de_degradado_4-6);}</style><linearGradient id="Nueva_muestra_de_degradado_4" x1="18.84" y1="96.81" x2="114.95" y2="32.45" gradientUnits="userSpaceOnUse"><stop offset="0" stop-color="#41b7e2"/><stop offset="0.3" stop-color="#4798e2"/><stop offset="0.94" stop-color="#554be2"/><stop offset="1" stop-color="#5643e2"/></linearGradient><linearGradient id="Nueva_muestra_de_degradado_4-2" x1="115.82" y1="65.4" x2="46.27" y2="117.35" xlink:href="#Nueva_muestra_de_degradado_4"/><linearGradient id="Nueva_muestra_de_degradado_4-3" x1="19.9" y1="98.39" x2="116.01" y2="34.03" xlink:href="#Nueva_muestra_de_degradado_4"/><linearGradient id="Nueva_muestra_de_degradado_4-4" x1="77.71" y1="125.48" x2="124.47" y2="84.79" xlink:href="#Nueva_muestra_de_degradado_4"/><linearGradient id="Nueva_muestra_de_degradado_4-5" x1="20.04" y1="23.83" x2="73.72" y2="2.76" xlink:href="#Nueva_muestra_de_degradado_4"/><linearGradient id="Nueva_muestra_de_degradado_4-6" x1="89.12" y1="11.9" x2="4.85" y2="63.28" xlink:href="#Nueva_muestra_de_degradado_4"/></defs><g id="Layer_2" data-name="Layer 2"><g id="OBJECT"><path class="cls-1" d="M53.13,86.9A25,25,0,0,1,40,67.71a94.07,94.07,0,0,1-25.36,6.93c-4.53.62-9.07,1-13.63,1.2a64.81,64.81,0,0,0,31.28,44.94A136.57,136.57,0,0,1,49.35,91.41C50.56,89.87,51.83,88.37,53.13,86.9Z"/><path class="cls-2" d="M89.75,63.48c0,.43,0,.86,0,1.3A25,25,0,0,1,53.13,86.9c-1.3,1.47-2.57,3-3.78,4.51a136.57,136.57,0,0,0-17.11,29.37,64.48,64.48,0,0,0,31.62,8.75c4.72-5.23,9.11-10.78,13.77-16.07,7.85-8.91,16.6-17.16,26.75-23.33A71,71,0,0,1,127.51,81a65,65,0,0,0,.85-28.53c-5.7,3.42-12.27,5.41-18.8,6.85S96.26,61.74,89.75,63.48Z"/><path class="cls-3" d="M106.32,15.08A96.5,96.5,0,0,0,82.67,31c-3.49,3.19-6.75,6.61-10,10.07A25,25,0,0,1,89.75,63.48c6.51-1.74,13.22-2.74,19.81-4.19s13.1-3.43,18.8-6.85A64.74,64.74,0,0,0,106.32,15.08Z"/><path class="cls-4" d="M77.63,113.46c-4.66,5.29-9,10.84-13.77,16.07l.92,0A64.8,64.8,0,0,0,127.51,81a71,71,0,0,0-23.13,9.16C94.23,96.3,85.48,104.55,77.63,113.46Z"/><path class="cls-5" d="M57.66,20.15a92.49,92.49,0,0,0,27-17A64.83,64.83,0,0,0,6.53,36.42,129.17,129.17,0,0,1,27.85,29C37.87,26.34,48.05,24.07,57.66,20.15Z"/><path class="cls-6" d="M40,67.71a23.64,23.64,0,0,1-.18-2.93A25,25,0,0,1,72.68,41.05c3.24-3.46,6.5-6.88,10-10.07a96.5,96.5,0,0,1,23.65-15.9,64.94,64.94,0,0,0-21.71-12,92.49,92.49,0,0,1-26.95,17C48.05,24.07,37.87,26.34,27.85,29A129.17,129.17,0,0,0,6.53,36.42,64.67,64.67,0,0,0,1,75.84c4.56-.22,9.1-.58,13.63-1.2A94.07,94.07,0,0,0,40,67.71Z"/></g></g></svg>